<svg width="500" height="500" viewBox="0 0 500 500" fill="none" xmlns="http://www.w3.org/2000/svg">
<mask id="mask0_6_21" style="mask-type:alpha" maskUnits="userSpaceOnUse" x="0" y="0" width="500" height="500">
<circle cx="250" cy="250" r="250" fill="#F1FAEE"/>
</mask>
<g mask="url(#mask0_6_21)">
<rect width="499.952" height="499.283" transform="matrix(0.999997 0.00239455 -0.00220559 0.999998 1.15024 -0.479309)" fill="#F1FAEE"/>
<path d="M38.2125 434.873L20.1342 412.108L53.4549 403.954L87.8391 394.44L120.096 382.887L151.645 368.277L158.025 383.567L170.432 401.575L186.029 414.826L203.398 425.699L240.973 448.125L275.002 462.395L299.107 470.55L309.032 471.909L320.021 470.55L326.401 463.754L328.174 454.92L325.338 440.65L321.793 431.136L309.032 409.39L289.181 384.247L275.002 356.385L270.749 347.211L269.331 337.357L268.267 329.543L269.331 319.689L272.876 312.894L279.256 307.457H289.181L301.943 312.894L313.286 319.689L324.275 328.183L333.136 337.357L352.278 364.54L370.711 392.401L382.054 409.39L389.498 415.846L396.588 417.545L402.614 413.467L406.867 408.371L410.412 401.915L413.602 395.119L416.084 387.644L417.147 370.316L416.084 352.987L410.412 319.689L402.614 291.827L387.726 257.85L370.711 226.59L401.905 202.806L431.326 176.303L456.494 149.121L480.598 118.881L504.703 151.839L518.173 206.883L523.49 249.695L520.3 296.924L504.348 345.172L480.244 387.644L440.188 440.65L384.535 485.84L321.793 516.42L270.749 527.972L214.741 525.254L170.432 517.439L130.731 505.547L94.9286 485.5L66.925 475.646L58.0631 462.395L38.2125 434.873Z" fill="#612897"/>
<path d="M4.58306 357.463L19.0603 395.105L48.368 388.275L78.7349 379.397L106.983 369.153L134.525 357.463L146.531 351.737L138.409 331.931L114.045 312.467L80.8535 294.71L59.6673 278.319L46.6024 265.002L36.3624 246.22L28.9472 229.146L26.4755 207.975L28.9472 188.511L36.3624 168.363L51.899 150.948L70.2604 137.63L89.328 127.044L109.102 117.142L132.407 109.971L152.887 106.214L176.898 66.6028L188.903 48.5045L206.559 29.7232L225.626 20.8448L246.106 18.1129L262.349 20.8448L277.885 26.3084L291.303 35.1868L301.897 46.7971L316.727 80.9449L323.083 123.288V173.827L340.738 190.218L363.337 209.682L392.644 186.462L420.539 161.534L444.904 133.533L466.443 103.824L433.251 57.0415L359.099 11.9663L296.953 -3.74168L246.106 -10.5712L193.847 -13.986L121.107 9.91745L50.4866 50.2119L1.05202 113.044L-15.897 198.413L-20.1342 246.22V299.491L4.58306 357.463Z" fill="#FF008E"/>
</g>
</svg>
